<?xml version="1.0" encoding="UTF-8"?><svg id="Layer_2" xmlns="http://www.w3.org/2000/svg" viewBox="0 0 1685.33 1685.33"><defs><style>.cls-1{fill:#f2f2f2;}.cls-2{fill:#52b54b;}</style></defs><g id="Layer_1-2"><rect width="1685.33" height="1685.33" rx="210.19" ry="210.19"/><rect class="cls-1" x="527.26" y="521.25" width="697.48" height="642.82"/><path class="cls-2" d="M779.24,49.49c-.46,0-96.24,94.52-212.77,209.93l-211.98,209.93,33.84,33.91,33.84,33.84-186.33,184.48-186.4,184.61,120.96,122.15c66.49,67.16,161.15,162.6,210.32,212.11l89.3,89.83,33.58-32.78c18.51-18.04,34.04-32.92,34.64-32.92.53,0,83.68,83.55,184.68,185.6l183.82,185.67,12.36-12.03c15.2-14.87,330.95-327.18,377.88-373.85l34.37-34.11-33.18-33.91c-18.24-18.64-33.05-34.37-32.78-35.03.2-.59,83.55-83.28,185.21-183.95,101.66-100.6,185.07-183.49,185.27-184.08.33-.79-239.08-243.5-403.66-409.34l-16.13-16-33.38,33.38c-18.44,18.38-34.17,33.12-35.03,32.85-.86-.33-83.94-83.75-184.61-185.4-61-61.89-122.28-123.52-183.82-184.88ZM659.08,536.43c6.01,2.51,525.54,304.58,525.94,305.83.2.86-117.72,69.8-262.08,153.35-87.93,51.03-175.97,101.86-264.13,152.49-1.26.4-1.72-83.68-1.72-305.97,0-244.56.46-306.3,1.98-305.7h0Z"/></g></svg>