<?xml version="1.0" encoding="UTF-8"?><svg id="Layer_2" xmlns="http://www.w3.org/2000/svg" viewBox="0 0 1685.33 1685.33"><defs><style>.cls-1{fill:#fff;}.cls-2{fill:#09f;}</style></defs><g id="Layer_1-2"><rect class="cls-2" width="1685.33" height="1685.33" rx="210.19" ry="210.19"/><path class="cls-1" d="M769.98,599.51h91.68v406.14c0,.19,2.56,2.75,2.75,2.75h82.51c.19,0,2.75-2.56,2.75-2.75v-406.14h91.68v-67.84h-271.37v67.84Z"/><path class="cls-1" d="M711.33,561.91c-53.43-48.62-164.35-24.04-231.05-30.24v474.9c1.8-.6,3.98,1.83,4.58,1.83h80.68c.19,0,2.75-2.56,2.75-2.75v-190.69c0-.39-2.74-2.08-1.83-2.73,79.02,2.56,161.2-5.16,175.8-98.34,7.18-45.8,5.71-118.64-30.93-151.98ZM652.66,717.81c-12.13,40.38-52.36,33.75-86.23,33.87-.1-1.28,1.85-2.27,1.85-2.73v-156.77c15.46,1.71,35.59-2.31,50.42,0,15.82,2.47,30.54,15.89,34.87,31.14,5.22,18.38,4.59,76.13-.92,94.49Z"/><rect class="cls-1" x="313.42" y="531.67" width="88.01" height="476.74"/><polygon class="cls-1" points="1221.95 911.23 1162.37 531.67 1068.86 531.67 1169 1008.51 1275.22 1006.65 1371.4 531.67 1277.89 531.67 1221.95 911.23"/><path class="cls-1" d="M1609.57,336.59c-5.21-27.39-28.97-50.2-57.47-50.71H132.73c-28,1.08-53.52,26.44-55.91,54.11-3.31,38.25.3,85.44.14,124.83-.97,247.74-1.2,497.6,1.88,746.08,4.65,19.58,32.23,43.21,52.14,43.21h688.52c-.09,4.07-1.72,7.7-1.91,11.82-.87,19.12,8.02,20.66-18.26,19.35v28.42c0,2.01-4.48,2.63-6.32,2.84-29.5,3.46-69.9-.82-101.02-.17-80.56,1.68-161.49,6.4-241.98,11.06-36.13,2.09-75.9,1.32-111.63,5.72-22.27,2.74-44.99,21.68-46.92,44.75-.95,11.35-.07,21.32,13.63,21.14,311.16-22.7,623.68-25.83,935.3-9.32,31.71,1.68,63.61,5.67,95.29,7.39,13.13.71,37.78,3.56,49.37,1.74,14.55-2.29,11.17-22.48,7.24-32.68-6.92-17.94-25.27-30.45-43.99-33.02-43.88-6.02-96.12-5.2-140.97-7.55-66.91-3.5-134.62-7.68-201.64-9.22-33.29-.77-66.73.73-100.01.08v-31.17h-20.17v-31.17h672.01c22.22,0,50.82-29.78,52.26-52.25-.12-288.87.49-576.44-.21-865.26ZM120.04,1210.19V329.89s1445.81-.01,1445.81-.01v880.29s-1445.81.01-1445.81.01Z"/></g></svg>