<?xml version="1.0" encoding="UTF-8"?><svg id="Layer_2" xmlns="http://www.w3.org/2000/svg" xmlns:xlink="http://www.w3.org/1999/xlink" viewBox="0 0 1685.33 1685.33"><defs><style>.cls-1{fill:url(#linear-gradient-2);}.cls-2{fill:#000b25;}.cls-3{fill:url(#linear-gradient);}</style><linearGradient id="linear-gradient" x1="469.73" y1="4451.03" x2="1468.72" y2="3874.27" gradientTransform="translate(0 5175.72) scale(1 -1)" gradientUnits="userSpaceOnUse"><stop offset="0" stop-color="#aa5cc3"/><stop offset="1" stop-color="#00a4dc"/></linearGradient><linearGradient id="linear-gradient-2" x1="461.93" y1="4437.52" x2="1460.92" y2="3860.76" xlink:href="#linear-gradient"/></defs><g id="Layer_1-2"><rect class="cls-2" width="1685.33" height="1685.33" rx="210.19" ry="210.19"/><g id="icon-transparent"><path id="inner-shape" class="cls-3" d="M842.73,701.88c-52.81,0-223.15,308.84-197.27,360.88s368.9,51.52,394.53,0c25.63-51.52-144.2-360.88-197.27-360.88Z"/><path id="outer-shape" class="cls-1" d="M842.73,240.3c-159.47,0-672.57,930.41-594.39,1087.55,78.18,157.14,1111.37,155.33,1188.77,0,77.4-155.33-434.92-1087.55-594.39-1087.55ZM1232.35,1191.68c-50.74,101.74-727.71,103.03-778.97,0-51.26-103.03,285.03-712.69,389.35-712.69s440.35,610.7,389.61,712.69Z"/></g></g></svg>