<?xml version="1.0" encoding="UTF-8"?>
<svg id="Layer_2" data-name="Layer 2" xmlns="http://www.w3.org/2000/svg" viewBox="0 0 3777.82 794.92">
  <defs>
    <style>
      .cls-1 {
        fill: #a78bfa;
      }

      .cls-2 {
        fill: #fff;
      }
    </style>
  </defs>
  <g id="Layer_3" data-name="Layer 3">
    <polygon class="cls-1" points="1249.62 0 978.74 618.1 854.94 618.1 1138.13 0 1102.69 0 923.35 391.44 576.22 0 499.91 0 217.43 616.55 0 616.55 52.18 761.92 414.7 761.92 604.08 342.05 623.72 298.5 657.5 332.28 695.9 370.68 712.27 387.06 697.74 372.52 719.2 323.69 574.23 161.38 371.03 616.55 252.87 616.55 534.6 1.63 908.68 423.45 819.5 618.1 603.92 618.1 658.47 761.92 1022.88 761.92 1299.14 143.62 1249.62 0"/>
    <g>
      <path class="cls-1" d="M1576.69,779.16l-179.55-287.82v287.82h-98v-455.03h111.7l163.79,273.43v-273.43h99.36v455.03h-97.31Z"/>
      <path class="cls-1" d="M1680.85,555.75c0-154.19,79.49-246.7,220.66-246.7s219.97,92.51,219.97,248.76-78.12,237.11-219.97,237.11-220.66-85.66-220.66-239.17ZM2017.32,557.81c0-102.11-41.12-154.87-115.81-154.87s-116.5,52.77-116.5,154.87,43.17,145.97,116.5,145.97c62.36,0,115.81-43.86,115.81-145.97Z"/>
      <path class="cls-1" d="M2221.54,779.16l-150.77-455.03h113.07l90.46,304.27,89.09-304.27h110.33l-151.45,455.03h-100.74Z"/>
      <path class="cls-1" d="M2478.52,779.16v-455.03h106.22v455.03h-106.22Z"/>
      <path class="cls-1" d="M2863.65,779.16l-76.75-147.34-81.55,147.34h-123.35l143.23-232.31-135-222.72h125.41l71.27,138.43,72.64-138.43h123.35l-134.32,217.92,143.91,237.11h-128.83Z"/>
      <path class="cls-2" d="M3004.12,779.16v-98h105.54v98h-105.54Z"/>
      <path class="cls-2" d="M3125.42,779.16v-366.63h-133.63v-88.4h374.17v88.4h-134.32v366.63h-106.22Z"/>
      <path class="cls-2" d="M3525.63,779.16l-150.77-455.03h113.07l90.46,304.27,89.09-304.27h110.33l-151.45,455.03h-100.74Z"/>
    </g>
  </g>
</svg>