<?xml version="1.0" encoding="UTF-8"?>
<svg id="Layer_2" data-name="Layer 2" xmlns="http://www.w3.org/2000/svg" viewBox="0 0 3813.36 827.92">
  <defs>
    <style>
      .cls-1 {
        fill: #12102a;
      }

      .cls-2 {
        fill: #a371c0;
      }

      .cls-3 {
        fill: #fff;
      }
    </style>
  </defs>
  <g id="Layer_3" data-name="Layer 3">
    <g>
      <polygon class="cls-2" points="1370.14 178.18 1079.83 827.92 671.24 827.92 603.66 649.74 708.11 427.02 669.71 388.61 471.56 827.92 64.51 827.92 0 648.2 162.82 284.17 313.35 284.17 440.84 0 701.96 0 927.76 271.88 1049.11 0 1308.7 0 1370.14 178.18"/>
      <path class="cls-1" d="M1285.17,33l-270.88,618.1h-123.81L1173.67,33h111.49ZM936.27,333.78l-33.9-40.82L686.47,33h-74.71l347.14,391.44,179.34-391.44h-67.72l-112.62,252.33-21.62,48.45ZM535.46,33h-73.26l-118.75,264.67-8.74,19.49h-150.5L35.55,649.55h217.43L535.46,33ZM944.23,456.45L570.15,34.63l-281.74,614.93h118.16l203.2-455.18,144.97,162.31-21.46,48.83,14.54,14.54-9.83,20.97-98.52,210.07h215.58l89.18-194.65ZM1285.17,33h-214.65l-112.62,252.33-21.62,48.45-33.9-40.82L686.47,33h-224.27l-118.75,264.67-8.74,19.49h-150.5L35.55,649.55l52.18,145.37h362.51l189.38-419.87,19.64-43.54,33.78,33.78,38.4,38.4,16.38,16.38-9.83,20.97-98.52,210.07,54.55,143.82h364.41l276.26-618.3-49.52-143.62M1308.7,0l61.44,178.18-290.31,649.74h-408.58l-67.59-178.18,104.45-222.72-38.4-38.4-198.15,439.3H64.51L0,648.2l162.82-364.04h150.53L440.84,0h261.12l225.8,271.88L1049.11,0h259.59Z"/>
    </g>
    <g>
      <path class="cls-2" d="M1612.23,812.16l-179.55-287.82v287.82h-98v-455.03h111.7l163.79,273.43v-273.43h99.36v455.03h-97.31Z"/>
      <path class="cls-2" d="M1716.39,588.75c0-154.19,79.49-246.7,220.66-246.7s219.97,92.51,219.97,248.76-78.12,237.11-219.97,237.11-220.66-85.66-220.66-239.17ZM2052.87,590.81c0-102.11-41.12-154.87-115.81-154.87s-116.5,52.77-116.5,154.87,43.17,145.97,116.5,145.97c62.36,0,115.81-43.86,115.81-145.97Z"/>
      <path class="cls-2" d="M2257.09,812.16l-150.77-455.03h113.07l90.46,304.27,89.09-304.27h110.33l-151.45,455.03h-100.74Z"/>
      <path class="cls-2" d="M2514.06,812.16v-455.03h106.22v455.03h-106.22Z"/>
      <path class="cls-2" d="M2899.19,812.16l-76.75-147.34-81.55,147.34h-123.35l143.23-232.31-135-222.72h125.41l71.27,138.43,72.64-138.43h123.35l-134.32,217.92,143.91,237.11h-128.83Z"/>
      <path class="cls-3" d="M3039.67,812.16v-98h105.54v98h-105.54Z"/>
      <path class="cls-3" d="M3160.97,812.16v-366.63h-133.63v-88.4h374.17v88.4h-134.32v366.63h-106.22Z"/>
      <path class="cls-3" d="M3561.18,812.16l-150.77-455.03h113.07l90.46,304.27,89.09-304.27h110.33l-151.45,455.03h-100.74Z"/>
    </g>
  </g>
</svg>